<svg id="Слой_1" data-name="Слой 1" xmlns="http://www.w3.org/2000/svg" viewBox="0 0 525.18 523.76"><defs><style>.cls-1{fill:#fff;}</style></defs><path d="M263.94,515.9c-138.83-.08-251.8-113.28-251.62-252.14.17-139.32,113.1-252.07,252.32-251.91C403.59,12,516.42,125.06,516.26,264,516.1,403.3,403.25,516,263.94,515.9Zm215.2-247.27C482.46,151.75,388.1,52.3,270.81,49A215.25,215.25,0,0,0,49.47,258.11C46,376.86,140,475.84,260.28,478.62,378.09,481.34,476.09,387.69,479.14,268.63Z"/><path class="cls-1" d="M479.14,268.63c-3.05,119.06-101.05,212.71-218.86,210C140,475.84,46,376.86,49.47,258.11A215.25,215.25,0,0,1,270.81,49C388.1,52.3,482.46,151.75,479.14,268.63Zm-421.86-4c0,114.2,92.89,207.23,206.9,207.24s207-92.78,207.14-207c.17-114.09-92.6-206.95-206.92-207.09C150.26,57.6,57.27,150.47,57.28,264.62Z"/><path d="M57.28,264.62c0-114.15,93-207,207.12-206.87,114.32.14,207.09,93,206.92,207.09-.18,114.24-93,207-207.14,207S57.29,378.82,57.28,264.62Zm305,98.1c-.66-1.73-1.46-3.58-2.12-5.07q-39-88.39-78-176.76c-2.21-5-3.48-11.77-7.39-14.27s-10.64-.5-16.1-.91c-4.1-.32-6.05,1.14-7.75,5q-41.48,93.56-83.28,187c-.66,1.48-1.17,3-2,5.24,4.89,0,9.18-.14,13.42.08,3.57.19,6.71-1,8.55-5.31,7.28-17,15.21-33.67,22.55-50.62,1.69-3.9,3.81-4.94,7.83-4.92q46.23.24,92.46,0c4.27,0,6.45,1.06,8.14,5.18,5.56,13.54,11.58,26.9,17.54,40.28,2.27,5.11,3.56,12,7.62,14.24,2,1.16,5.22,1.58,8.36,1.46C361.29,362.94,361.78,362.81,362.27,362.72Z"/><path class="cls-1" d="M362,362.41c-1.39.23-1.39.23-1.55.24-5.57.19-10.91,1.73-16.73-.83-4-2.36-5.35-9.13-7.62-14.24-6-13.38-12-26.74-17.54-40.28-1.69-4.12-3.87-5.2-8.14-5.18q-46.23.3-92.46,0c-4,0-6.14,1-7.83,4.92-7.34,16.95-15.27,33.64-22.55,50.62-1.84,4.29-4.89,5.38-8.55,5.31-4.05-.08-8,0-13.42-.08.85-2.22,1.36-3.76,2-5.24q41.68-93.48,83.28-187c1.7-3.83,3.85-5.35,7.95-5.35,4.35,0,12.59-1.15,15.9,1.29,3.73,2.76,5.18,9.27,7.39,14.27q39.06,88.37,78,176.76C360.81,359.14,361.31,360.69,362,362.41Zm-53.54-80.06c-14.46-33.43-28.64-66.24-43.29-100.12-14.71,34.07-28.85,66.82-43.24,100.12Z"/><path d="M308.42,282.35H221.89c14.39-33.3,28.53-66.05,43.24-100.12C279.78,216.11,294,248.92,308.42,282.35Z"/></svg>