<svg width="220" height="420" viewBox="0 0 220 420" fill="none" xmlns="http://www.w3.org/2000/svg">
<circle cx="10" cy="10" r="10" fill="#F7F7F7"/>
<circle cx="10" cy="310" r="10" fill="#F7F7F7"/>
<circle cx="10" cy="60" r="10" fill="#F7F7F7"/>
<circle cx="10" cy="360" r="10" fill="#F7F7F7"/>
<circle cx="10" cy="110" r="10" fill="#F7F7F7"/>
<circle cx="10" cy="410" r="10" fill="#F7F7F7"/>
<circle cx="10" cy="160" r="10" fill="#F7F7F7"/>
<circle cx="10" cy="210" r="10" fill="#F7F7F7"/>
<circle cx="10" cy="260" r="10" fill="#F7F7F7"/>
<circle cx="60" cy="10" r="10" fill="#F7F7F7"/>
<circle cx="60" cy="310" r="10" fill="#F7F7F7"/>
<circle cx="60" cy="60" r="10" fill="#F7F7F7"/>
<circle cx="60" cy="360" r="10" fill="#F7F7F7"/>
<circle cx="60" cy="110" r="10" fill="#F7F7F7"/>
<circle cx="60" cy="410" r="10" fill="#F7F7F7"/>
<circle cx="60" cy="160" r="10" fill="#F7F7F7"/>
<circle cx="60" cy="210" r="10" fill="#F7F7F7"/>
<circle cx="60" cy="260" r="10" fill="#F7F7F7"/>
<circle cx="110" cy="10" r="10" fill="#F7F7F7"/>
<circle cx="110" cy="310" r="10" fill="#F7F7F7"/>
<circle cx="110" cy="60" r="10" fill="#F7F7F7"/>
<circle cx="110" cy="360" r="10" fill="#F7F7F7"/>
<circle cx="110" cy="110" r="10" fill="#F7F7F7"/>
<circle cx="110" cy="410" r="10" fill="#F7F7F7"/>
<circle cx="110" cy="160" r="10" fill="#F7F7F7"/>
<circle cx="110" cy="210" r="10" fill="#F7F7F7"/>
<circle cx="110" cy="260" r="10" fill="#F7F7F7"/>
<circle cx="210" cy="10" r="10" fill="#F7F7F7"/>
<circle cx="210" cy="310" r="10" fill="#F7F7F7"/>
<circle cx="210" cy="60" r="10" fill="#F7F7F7"/>
<circle cx="210" cy="360" r="10" fill="#F7F7F7"/>
<circle cx="210" cy="110" r="10" fill="#F7F7F7"/>
<circle cx="210" cy="410" r="10" fill="#F7F7F7"/>
<circle cx="210" cy="160" r="10" fill="#F7F7F7"/>
<circle cx="210" cy="210" r="10" fill="#F7F7F7"/>
<circle cx="210" cy="260" r="10" fill="#F7F7F7"/>
<circle cx="160" cy="10" r="10" fill="#F7F7F7"/>
<circle cx="160" cy="310" r="10" fill="#F7F7F7"/>
<circle cx="160" cy="60" r="10" fill="#F7F7F7"/>
<circle cx="160" cy="360" r="10" fill="#F7F7F7"/>
<circle cx="160" cy="110" r="10" fill="#F7F7F7"/>
<circle cx="160" cy="410" r="10" fill="#F7F7F7"/>
<circle cx="160" cy="160" r="10" fill="#F7F7F7"/>
<circle cx="160" cy="210" r="10" fill="#F7F7F7"/>
<circle cx="160" cy="260" r="10" fill="#F7F7F7"/>
</svg>
