<svg width="40" height="40" viewBox="0 0 40 40" fill="none" xmlns="http://www.w3.org/2000/svg">
<path d="M28.961 0H11.0383C4.95176 0 0 4.952 0 11.0385V28.9613C0 35.048 4.95176 39.9998 11.0383 39.9998H28.961C35.048 39.9998 39.9998 35.0478 39.9998 28.9613V11.0385C40 4.952 35.048 0 28.961 0ZM36.451 28.9613C36.451 33.0911 33.0911 36.4508 28.9613 36.4508H11.0383C6.90867 36.451 3.54897 33.0911 3.54897 28.9613V11.0385C3.54897 6.9089 6.90867 3.54897 11.0383 3.54897H28.961C33.0909 3.54897 36.4508 6.9089 36.4508 11.0385V28.9613H36.451Z" fill="#B05AE4"/>
<path d="M19.9999 9.69342C14.3165 9.69342 9.69295 14.317 9.69295 20.0003C9.69295 25.6834 14.3165 30.3068 19.9999 30.3068C25.6832 30.3068 30.3068 25.6834 30.3068 20.0003C30.3068 14.317 25.6832 9.69342 19.9999 9.69342ZM19.9999 26.7576C16.2737 26.7576 13.2419 23.7263 13.2419 20.0001C13.2419 16.2737 16.2735 13.2422 19.9999 13.2422C23.7263 13.2422 26.7578 16.2737 26.7578 20.0001C26.7578 23.7263 23.7261 26.7576 19.9999 26.7576Z" fill="#B05AE4"/>
<path d="M30.7391 6.68411C30.0553 6.68411 29.3836 6.96093 28.9007 7.44596C28.4155 7.92862 28.1365 8.60056 28.1365 9.28669C28.1365 9.9707 28.4157 10.6424 28.9007 11.1274C29.3834 11.6101 30.0553 11.8893 30.7391 11.8893C31.4252 11.8893 32.0948 11.6101 32.5798 11.1274C33.0648 10.6424 33.3416 9.97046 33.3416 9.28669C33.3416 8.60056 33.0648 7.92862 32.5798 7.44596C32.0971 6.96093 31.4252 6.68411 30.7391 6.68411Z" fill="#B05AE4"/>
</svg>
