<svg width="330" height="48" viewBox="0 0 330 48" fill="none" xmlns="http://www.w3.org/2000/svg">
<path d="M128.388 0H130.013C138.886 0.314839 147.248 6.09548 150.727 14.3484C153.93 21.6516 153.174 30.56 148.72 37.1716C144.955 42.9574 138.58 46.911 131.76 47.6594C125.063 48.48 118.085 46.209 113.125 41.5897C108.19 37.12 105.293 30.4568 105.391 23.7574C105.375 16.8258 108.578 9.99742 113.86 5.58968C117.891 2.12129 123.111 0.196129 128.388 0ZM125.41 8.58323C119.076 10.1213 114.269 16.16 113.891 22.6942C113.339 28.8826 116.736 35.2206 122.238 38.0284C127.387 40.7948 134.089 40.031 138.539 36.2374C144.194 31.6594 145.879 22.9884 142.477 16.5471C139.484 10.3484 132.046 6.76129 125.41 8.58323Z" fill="#B05AE4"/>
<path d="M0 1.40388C2.52353 0.898069 5.12368 1.15097 7.67786 1.1871C8.41858 1.06839 8.44923 2.05936 8.46455 2.55484C8.46966 12.7277 8.45944 22.9058 8.46455 33.0787C16.5358 22.9213 24.5712 12.7381 32.6118 2.56517C33.1635 1.89936 33.8071 1.12517 34.7573 1.17162C37.8836 1.07355 41.0201 1.12517 44.1515 1.19742C43.467 2.82839 42.2308 4.09807 41.1632 5.46581C30.6502 18.7613 20.1269 32.0516 9.61904 45.3523C9.09799 45.9355 8.53096 46.6839 7.65743 46.6426C5.10836 46.7871 2.54907 46.7045 0 46.5858V1.40388Z" fill="#B05AE4"/>
<path d="M55.5227 4.50579C56.6159 3.0916 57.8062 1.36257 59.7474 1.20773C61.9133 1.08386 64.0946 1.06321 66.2605 1.20773C66.9501 1.57934 66.6896 2.44644 66.7662 3.07611C66.7407 15.8142 66.7611 28.5522 66.756 41.2955C66.7356 43.0761 66.8786 44.8722 66.5721 46.6374C64.1354 46.7045 61.6987 46.7355 59.2621 46.6684C58.3681 46.7458 57.704 46.0697 57.1983 45.4297C53.3313 40.5419 49.4898 35.6439 45.5921 30.7819C41.7557 35.6232 37.9193 40.4697 34.0983 45.3213C33.5926 45.9045 33.046 46.658 32.1826 46.6426C29.0461 46.7664 25.9045 46.6735 22.7628 46.6684C22.676 45.8426 23.3401 45.2645 23.7641 44.6503C34.369 31.2826 44.9433 17.8942 55.5227 4.50579ZM50.2969 23.9019C52.9532 27.2722 55.6096 30.6374 58.2813 33.9974C58.2761 27.2826 58.3017 20.5729 58.2659 13.858C55.584 17.1871 52.9635 20.5626 50.2969 23.9019Z" fill="#B05AE4"/>
<path d="M76.9115 3.13291C77.0187 2.48258 76.6407 1.25936 77.6318 1.1871C80.2064 1.22839 82.8934 0.779358 85.4016 1.47097C85.376 13.8374 85.3914 26.2039 85.3914 38.5703C91.9096 38.6219 98.4279 38.4671 104.936 38.6581C104.093 40.6606 102.402 42.111 101.186 43.871C100.18 45.0065 99.3576 46.8594 97.5748 46.6839C90.7245 46.6323 83.8691 46.8387 77.029 46.5755C76.7735 32.0981 77.0034 17.6103 76.9115 3.13291Z" fill="#B05AE4"/>
<path d="M160.28 3.64903C160.356 2.75612 159.932 1.01677 161.353 1.15096C172.622 1.10967 183.896 1.15096 195.165 1.13032C195.737 1.08903 196.794 1.20774 196.621 2.05935C196.605 5.45032 196.825 8.87741 196.498 12.2477C193.081 17.1355 189.117 21.6464 185.49 26.3845C190.317 32.48 195.119 38.5961 199.972 44.671C200.416 45.2645 200.958 45.8632 200.988 46.6529C197.852 46.6942 194.715 46.7458 191.579 46.6529C190.424 46.6426 189.821 45.4916 189.147 44.7277C184.396 38.5497 179.354 32.5884 174.747 26.3019C179.186 20.5884 183.727 14.9574 188.182 9.25935C181.709 9.25419 175.237 9.24903 168.765 9.26451C168.693 21.6981 168.898 34.1368 168.663 46.5652C165.914 46.7716 163.146 46.7768 160.397 46.5652C160.147 32.2632 160.382 17.9561 160.28 3.64903Z" fill="#B05AE4"/>
<path d="M208.033 2.53935C207.966 1.97161 208.15 1.02193 208.927 1.16645C211.374 1.17161 213.856 0.965161 216.283 1.28516C217.504 1.90968 218.158 3.24129 219.041 4.24258C229.631 17.6206 240.2 31.0142 250.805 44.3768C251.306 45.0735 252.046 45.7239 252.026 46.6632C248.915 46.6839 245.794 46.751 242.683 46.6529C241.804 46.6994 241.222 45.9561 240.711 45.3523C236.885 40.4852 233.033 35.6335 229.192 30.7768C225.309 35.6335 221.463 40.5316 217.606 45.4142C217.095 46.0439 216.446 46.7355 215.563 46.6684C213.335 46.72 211.098 46.7303 208.871 46.6529C207.89 46.7923 208.074 45.5226 208.028 44.929C208.043 30.7974 208.028 16.6658 208.033 2.53935ZM216.497 13.8374C216.482 20.5574 216.492 27.2774 216.492 33.9923C219.174 30.6426 221.83 27.2723 224.492 23.9019C221.805 20.5626 219.184 17.1716 216.497 13.8374Z" fill="#B05AE4"/>
<path d="M245.661 1.49676C246.872 0.748369 248.46 1.2903 249.819 1.1303C251.485 1.31095 253.666 0.541918 254.861 2.11095C263.055 12.418 271.203 22.7664 279.386 33.089C279.443 22.5806 279.269 12.0619 279.468 1.56385C279.606 1.47095 279.872 1.28514 280.01 1.19224C282.349 1.08385 284.709 1.09418 287.054 1.18192C288.111 1.15095 287.769 2.46192 287.861 3.12256C287.774 17.6051 287.994 32.0929 287.754 46.5651C285.327 46.7871 282.891 46.6942 280.459 46.6787C279.54 46.7561 278.83 46.1368 278.319 45.4503C270.222 35.2155 262.146 24.9703 254.028 14.7509C253.967 21.0839 254.136 27.4219 253.942 33.7497C253.252 33.5587 252.746 33.089 252.343 32.5264C250.33 29.9045 248.231 27.3497 246.208 24.7329C245.339 23.7419 245.584 22.3587 245.538 21.1458C245.641 14.5961 245.39 8.03611 245.661 1.49676Z" fill="#B05AE4"/>
<path d="M293.817 1.58451C294.267 0.990964 295.105 1.20258 295.748 1.12C304.096 1.14064 312.443 1.1458 320.79 1.12C322.067 1.23871 323.62 0.794835 324.692 1.70322C326.598 3.77806 328.243 6.09548 330 8.29935V9.24387C324.958 9.27483 319.916 9.23871 314.874 9.26451C314.823 21.7135 315.027 34.1626 314.813 46.6064C312.044 46.7252 309.265 46.7819 306.502 46.5703C306.353 34.1368 306.461 21.6981 306.399 9.25935C302.359 9.18193 298.308 9.38838 294.277 9.17677C294.16 9.05806 293.93 8.8258 293.817 8.70709C293.644 6.34322 293.664 3.94838 293.817 1.58451Z" fill="#B05AE4"/>
</svg>
