<svg id="Слой_1" data-name="Слой 1" xmlns="http://www.w3.org/2000/svg" viewBox="0 0 51 57"><defs><style>.cls-1{fill:#fff;}</style></defs><title>eye</title><path class="cls-1" d="M50.07,25.59C49.74,16.86,38.48,4.33,29.79,2.94,18.39,1.1,10.68,5.34,5.8,16.1c-.32.7-.79,1.32-1.47,2.44-.23-1.68-.39-2.78-.64-4.56-8,13.3-1.22,32.72,12.49,37.88a14,14,0,0,0,1.92.54c4.77,1,9.58,1.37,14.25-.32,4.85-1.75,9-4.86,11-9.55,1.63-3.83,6.86-5,6.59-10C49.85,30.26,50.16,27.91,50.07,25.59ZM26.89,44.87c-1.75,2.53-2.7,2.18-4.13-.17A33.66,33.66,0,0,1,18,27.79a33.93,33.93,0,0,1,4.48-16.23C23.91,9,25.07,8,27.16,11.29,33.15,20.65,33.07,35.92,26.89,44.87Z"/></svg>