<svg id="Слой_1" data-name="Слой 1" xmlns="http://www.w3.org/2000/svg" viewBox="0 0 54 59"><defs><style>.cls-1{fill:#fff;}</style></defs><title>skill1</title><path class="cls-1" d="M28,54.87c-6.21,4.49-8.62,4.47-13.53.33A6.84,6.84,0,0,0,12.9,54C-.45,48.51-.14,37,1.4,25.8c2-14.58,13.1-22.36,26.68-24.54a8.85,8.85,0,0,1,9,4.18C30.48,6.6,23.33,7.33,16.48,9.19,6.27,12,.76,24.92,4.75,35.67S14.55,55,28,54.87Z"/><path class="cls-1" d="M34.94,21.92c-3.12,9-3.12,9,1.07,15.82-5.25-4.53-10.33-4.29-15.28-.1C24,32.25,23.34,27,20,21.93l-.1.11C25,25.73,30,26,35.05,22Z"/><path class="cls-1" d="M16.64,36.46c-3.2-3.3-3.84-8.4-1.65-13.18a13.72,13.72,0,0,1,13.69-7.86A13.32,13.32,0,0,1,40.53,32.83c-.87-4.47.14-9.55-5.59-10.91l.11.12c-3.23-5.23-10.59-5.23-15.11,0l.1-.11C15.17,25.23,14.3,29,16.64,36.46Z"/><path class="cls-1" d="M51.78,37.58c-1.07-7.18-2-13.14-2.83-19C54.26,23.51,52.36,30,51.78,37.58Z"/><path class="cls-1" d="M43.33,49c-.88,5-3.41,7.24-9.71,5.57Z"/></svg>