<svg id="Слой_1" data-name="Слой 1" xmlns="http://www.w3.org/2000/svg" viewBox="0 0 51 57"><defs><style>.cls-1{fill:#fff;}</style></defs><title>ult</title><path class="cls-1" d="M25.34,51.08a44.1,44.1,0,0,1-3.79-2.32c-1-.73-2.45-1.67-2.5-2.58-.2-3.93-2.68-4-5.26-3.19S8.72,45.25,5.5,46.74l5.2-11.47c-3.86.31-6.11-.74-5.19-4.79L.07,28.68c3-1.33,6.22-2.06,5.93-6.05,0-.36,2.53-.91,4.47-1.57L5.62,10.28c3,1.31,5.56,2.57,8.2,3.5s5.05,1.05,5.15-3c.08-3.06,2.17-3.18,4.65-2.37l2-5.68,2.28,5.52c2.52-.53,4.89-.49,4.73,3.05s2.22,3.22,4.17,2.66a92.68,92.68,0,0,0,9-3.67l-5,11.12c2.93.38,5.95-.14,5.52,4.17-.09.88,3,2.09,4.74,3.22l-5.11,1.65c1.39,4.1-.81,5.27-5.13,4.75L46,47c-3.34-1.58-5.53-2.7-7.79-3.68-3.47-1.51-4.85-.68-5.63,3-.18.85-1,2.27-1.49,2.24-3.29-.19-4.88,1.4-5.76,4.47V51.07c.61-1.52,1.21-3,1.85-4.63l3.42,1.07L31.14,46l-5.52-1.48C28.78,43,31,41.55,33.52,41s4.94-.12,7.26-.12c-2.32-6.72-1.88-10.13,1.46-11L43.11,35c2.28-2.49-1.31-6.57,2.79-6.11l-2.76-6.33-.93,4.72c-1.68-1.4-3.16-3.36-3.24-5.38-.09-2.28,1.09-4.6,1.74-7-2.7.32-4.73,3.5-7.85,1-1.8-1.45-4.24-2.08-6.39-3.08L27,11.64c.25,0,.5,0,.75-.09l3-.51-.28-1.45-3.17.83L25.72,7,24.4,10.24l-4.07-.39-.18,1.44,4.43.74C20.15,14.18,16.42,19.45,10,14c3.2,7.94,2.7,12.12-1.17,13.31A8.1,8.1,0,0,1,9,25.64c.57-1.77.24-2.87-1.81-2.06-.28.11.16,2.05.29,3.36L5.2,28.19A22.52,22.52,0,0,1,7.33,31.4a8.42,8.42,0,0,1,.14,2.38,2.89,2.89,0,0,0,1.06,0A20.71,20.71,0,0,0,9,31.22a12.68,12.68,0,0,0,0-1.51l1.38-.46c.74,1.95,2.06,3.91,2.06,5.86,0,2.16-1.22,4.32-2,6.9,2.32-.88,4.06-2.11,5.71-2s3.23,1.57,4.89,2.35C22.3,43,23.7,43.49,25.06,44l-.57,1.25c-.67-.06-1.46-.38-2-.12a9.79,9.79,0,0,0-2,1.77h4.22Z"/><path class="cls-1" d="M36.91,28.61c.37,5.33-6.15,11.76-11.63,11.3-5.93-.5-11-5.79-11-11.49s6.39-11.81,12.17-11.31A11.26,11.26,0,0,1,36.91,28.61Zm-17.53.2,5.49,5.74,7.75-6L24.93,21.4Z"/></svg>