<svg width="40" height="40" viewBox="0 0 40 40" fill="none" xmlns="http://www.w3.org/2000/svg">
<g clip-path="url(#clip0)">
<path d="M32.2011 37.8895C31.8887 37.8895 31.5783 37.797 31.3121 37.6165L21.2545 30.7943L15.8602 34.6758C15.4371 34.98 14.8918 35.0566 14.4006 34.881C13.91 34.7049 13.5373 34.2985 13.4043 33.7946L10.6958 23.5299L1.01778 19.8293C0.408508 19.5962 0.00443967 19.0134 6.32299e-06 18.361C-0.00442703 17.7087 0.391619 17.1203 0.997932 16.879L37.7973 2.23631C37.9643 2.16538 38.141 2.12442 38.3191 2.11344C38.3829 2.10964 38.4469 2.10964 38.5104 2.11323C38.8794 2.13519 39.2419 2.2855 39.5248 2.5629C39.5541 2.59161 39.582 2.62096 39.6084 2.65157C39.8427 2.91926 39.9715 3.24564 39.9958 3.57814C40.0017 3.66174 40.0013 3.74639 39.9939 3.83105C39.9888 3.89143 39.9802 3.95159 39.9679 4.01134L33.7564 36.6026C33.6565 37.1261 33.3002 37.5644 32.8078 37.7685C32.6126 37.8496 32.4063 37.8895 32.2011 37.8895ZM22.1376 27.5668L31.0966 33.6436L35.9298 8.28403L18.4736 25.0814L22.0954 27.5383C22.11 27.5474 22.1239 27.5571 22.1376 27.5668ZM14.6797 26.2155L15.8792 30.7607L18.4636 28.901L15.0795 26.6054C14.9222 26.499 14.7875 26.3664 14.6797 26.2155ZM5.93985 18.3207L12.5852 20.8614C13.0613 21.0434 13.4206 21.4437 13.5506 21.9364L14.3934 25.1303C14.432 24.7619 14.599 24.4153 14.8703 24.1542L31.5036 8.14892L5.93985 18.3207Z" fill="#B05AE4"/>
</g>
<defs>
<clipPath id="clip0">
<rect width="40" height="40" fill="white"/>
</clipPath>
</defs>
</svg>
