<svg width="40" height="40" viewBox="0 0 40 40" fill="none" xmlns="http://www.w3.org/2000/svg">
<g clip-path="url(#clip0)">
<path d="M39.7307 8.67795C39.2557 7.99342 38.3149 7.82315 37.6298 8.29835L32.9426 11.5507C32.5169 11.846 32.2726 12.3389 32.2949 12.8563C32.3084 13.1667 32.315 13.4577 32.315 13.7459C32.315 23.3271 25.0246 33.237 12.8241 33.237C10.337 33.237 7.8936 32.7636 5.60997 31.8505L12.8435 29.8273C13.6463 29.6027 14.1151 28.7698 13.8905 27.967C13.6659 27.1643 12.8338 26.6953 12.0301 26.9199L1.10291 29.9764C0.530094 30.1367 0.104808 30.6183 0.0166515 31.2066C-0.0713039 31.7947 0.194173 32.38 0.694935 32.701C4.32265 35.0267 8.51693 36.2563 12.8241 36.2563C21.289 36.2563 26.5907 32.257 29.548 28.9023C33.2252 24.7303 35.3341 19.2062 35.3341 13.7462C35.3341 13.6864 35.3339 13.6266 35.3335 13.5666L39.3511 10.779C40.0358 10.3036 40.2059 9.36307 39.7307 8.67795Z" fill="#B05AE4"/>
<path d="M3.33199 8.20717L18.5451 15.9189C18.7608 16.0284 18.9947 16.0821 19.2274 16.0821C19.5587 16.0821 19.8879 15.9732 20.159 15.7605C20.6206 15.3986 20.8307 14.8022 20.6979 14.2308C20.597 13.7973 20.5461 13.346 20.5461 12.8899C20.5461 9.6529 23.1801 7.01927 26.4178 7.01927C28.0362 7.01927 29.5987 7.69493 30.704 8.87317C31.117 9.31356 31.7529 9.46511 32.3205 9.25901L37.0157 7.55304C37.7992 7.26824 38.2038 6.40237 37.919 5.61882C37.6344 4.83507 36.7677 4.43112 35.9848 4.71552L32.1641 6.10368C30.5682 4.75678 28.5245 4 26.4178 4C21.8026 4 17.9976 7.53452 17.5675 12.0384L4.69701 5.51436C3.95331 5.13718 3.04497 5.43466 2.66799 6.17816C2.29101 6.92185 2.58829 7.83019 3.33199 8.20717Z" fill="#B05AE4"/>
<path d="M2.55388 17.2469L5.89659 18.1697C6.03104 18.2069 6.16609 18.2244 6.29913 18.2244C6.96111 18.2244 7.56854 17.7855 7.75331 17.1162C7.97531 16.3128 7.50353 15.4813 6.70006 15.2593L3.35735 14.3365C2.55428 14.1147 1.72243 14.5861 1.50042 15.3897C1.27862 16.1936 1.7502 17.0249 2.55388 17.2469Z" fill="#B05AE4"/>
<path d="M5.48457 21.7398C4.65151 21.7714 4.00181 22.4722 4.03341 23.3053C4.0642 24.119 4.73343 24.7577 5.54093 24.7577C5.56025 24.7577 5.57957 24.7573 5.5989 24.7567L8.93235 24.6303C9.76541 24.5987 10.4151 23.8978 10.3837 23.0646C10.3521 22.2315 9.64948 21.5826 8.81823 21.6134L5.48457 21.7398Z" fill="#B05AE4"/>
</g>
<defs>
<clipPath id="clip0">
<rect width="40" height="40" fill="white"/>
</clipPath>
</defs>
</svg>
